<svg version="1.1" xmlns="http://www.w3.org/2000/svg" xmlns:xlink="http://www.w3.org/1999/xlink" width="800" height="391.6363636363636"><defs></defs><g transform="translate(0,0)"><g><rect fill="#FFFFFF" stroke="none" x="0" y="0" width="800" height="391.6363636363636"></rect></g><g transform="translate(0.5,0.5) matrix(1,0,0,1,20,11.636363636363626)"><g><g transform="translate(0,0) scale(7.6,3.6)"><g><path fill="#ffffff" stroke="none" d="M 0 0 L 100 0 Q 100 0 100 0 L 100 100 Q 100 100 100 100 L 0 100 Q 0 100 0 100 L 0 0 Q 0 0 0 0 Z"></path><g transform="scale(0.13157894736842105,0.2777777777777778)"><path fill="none" stroke="#000000" d="M 0 0 L 760 0 Q 760 0 760 0 L 760 360 Q 760 360 760 360 L 0 360 Q 0 360 0 360 L 0 0 Q 0 0 0 0 Z" stroke-miterlimit="10"></path></g></g><g><g transform="scale(0.13157894736842105,0.2777777777777778)"><path fill="rgb(0,0,0)" stroke="none" d="M 15.2 7.2 L 15.2 349.2 L 737.1999999999999 349.2 L 737.1999999999999 10.8 L 22.799999999999997 10.8 Z" fill-opacity="0" opacity="0"></path><path fill="none" stroke="#3C7626" d="M 15.2 7.2 M 15.2 7.2 L 15.2 11.2 M 15.2 11.2 M 15.2 13.2 L 15.2 17.2 M 15.2 17.2 M 15.2 19.2 L 15.2 23.2 M 15.2 23.2 M 15.2 25.2 L 15.2 29.2 M 15.2 29.2 M 15.2 31.2 L 15.2 35.2 M 15.2 35.2 M 15.2 37.2 L 15.2 41.2 M 15.2 41.2 M 15.2 43.2 L 15.2 47.2 M 15.2 47.2 M 15.2 49.2 L 15.2 53.2 M 15.2 53.2 M 15.2 55.2 L 15.2 59.2 M 15.2 59.2 M 15.2 61.2 L 15.2 65.2 M 15.2 65.2 M 15.2 67.2 L 15.2 71.2 M 15.2 71.2 M 15.2 73.2 L 15.2 77.2 M 15.2 77.2 M 15.2 79.2 L 15.2 83.2 M 15.2 83.2 M 15.2 85.2 L 15.2 89.2 M 15.2 89.2 M 15.2 91.2 L 15.2 95.2 M 15.2 95.2 M 15.2 97.2 L 15.2 101.2 M 15.2 101.2 M 15.2 103.2 L 15.2 107.2 M 15.2 107.2 M 15.2 109.2 L 15.2 113.2 M 15.2 113.2 M 15.2 115.2 L 15.2 119.2 M 15.2 119.2 M 15.2 121.2 L 15.2 125.2 M 15.2 125.2 M 15.2 127.2 L 15.2 131.2 M 15.2 131.2 M 15.2 133.2 L 15.2 137.2 M 15.2 137.2 M 15.2 139.2 L 15.2 143.2 M 15.2 143.2 M 15.2 145.2 L 15.2 149.2 M 15.2 149.2 M 15.2 151.2 L 15.2 155.2 M 15.2 155.2 M 15.2 157.2 L 15.2 161.2 M 15.2 161.2 M 15.2 163.2 L 15.2 167.2 M 15.2 167.2 M 15.2 169.2 L 15.2 173.2 M 15.2 173.2 M 15.2 175.2 L 15.2 179.2 M 15.2 179.2 M 15.2 181.2 L 15.2 185.2 M 15.2 185.2 M 15.2 187.2 L 15.2 191.2 M 15.2 191.2 M 15.2 193.2 L 15.2 197.2 M 15.2 197.2 M 15.2 199.2 L 15.2 203.2 M 15.2 203.2 M 15.2 205.2 L 15.2 209.2 M 15.2 209.2 M 15.2 211.2 L 15.2 215.2 M 15.2 215.2 M 15.2 217.2 L 15.2 221.2 M 15.2 221.2 M 15.2 223.2 L 15.2 227.2 M 15.2 227.2 M 15.2 229.2 L 15.2 233.2 M 15.2 233.2 M 15.2 235.2 L 15.2 239.2 M 15.2 239.2 M 15.2 241.2 L 15.2 245.2 M 15.2 245.2 M 15.2 247.2 L 15.2 251.2 M 15.2 251.2 M 15.2 253.2 L 15.2 257.2 M 15.2 257.2 M 15.2 259.2 L 15.2 263.2 M 15.2 263.2 M 15.2 265.2 L 15.2 269.2 M 15.2 269.2 M 15.2 271.2 L 15.2 275.2 M 15.2 275.2 M 15.2 277.2 L 15.2 281.2 M 15.2 281.2 M 15.2 283.2 L 15.2 287.2 M 15.2 287.2 M 15.2 289.2 L 15.2 293.2 M 15.2 293.2 M 15.2 295.2 L 15.2 299.2 M 15.2 299.2 M 15.2 301.2 L 15.2 305.2 M 15.2 305.2 M 15.2 307.2 L 15.2 311.2 M 15.2 311.2 M 15.2 313.2 L 15.2 317.2 M 15.2 317.2 M 15.2 319.2 L 15.2 323.2 M 15.2 323.2 M 15.2 325.2 L 15.2 329.2 M 15.2 329.2 M 15.2 331.2 L 15.2 335.2 M 15.2 335.2 M 15.2 337.2 L 15.2 341.2 M 15.2 341.2 M 15.2 343.2 L 15.2 347.2 M 15.2 347.2 M 15.2 349.2 L 15.2 349.2 L 19.2 349.2 M 19.2 349.2 M 21.2 349.2 L 25.2 349.2 M 25.2 349.2 M 27.2 349.2 L 31.2 349.2 M 31.2 349.2 M 33.2 349.2 L 37.2 349.2 M 37.2 349.2 M 39.2 349.2 L 43.2 349.2 M 43.2 349.2 M 45.2 349.2 L 49.2 349.2 M 49.2 349.2 M 51.2 349.2 L 55.2 349.2 M 55.2 349.2 M 57.2 349.2 L 61.2 349.2 M 61.2 349.2 M 63.2 349.2 L 67.2 349.2 M 67.2 349.2 M 69.2 349.2 L 73.2 349.2 M 73.2 349.2 M 75.2 349.2 L 79.2 349.2 M 79.2 349.2 M 81.2 349.2 L 85.2 349.2 M 85.2 349.2 M 87.2 349.2 L 91.2 349.2 M 91.2 349.2 M 93.2 349.2 L 97.2 349.2 M 97.2 349.2 M 99.2 349.2 L 103.2 349.2 M 103.2 349.2 M 105.2 349.2 L 109.2 349.2 M 109.2 349.2 M 111.2 349.2 L 115.2 349.2 M 115.2 349.2 M 117.2 349.2 L 121.2 349.2 M 121.2 349.2 M 123.2 349.2 L 127.2 349.2 M 127.2 349.2 M 129.2 349.2 L 133.2 349.2 M 133.2 349.2 M 135.2 349.2 L 139.2 349.2 M 139.2 349.2 M 141.2 349.2 L 145.2 349.2 M 145.2 349.2 M 147.2 349.2 L 151.2 349.2 M 151.2 349.2 M 153.2 349.2 L 157.2 349.2 M 157.2 349.2 M 159.2 349.2 L 163.2 349.2 M 163.2 349.2 M 165.2 349.2 L 169.2 349.2 M 169.2 349.2 M 171.2 349.2 L 175.2 349.2 M 175.2 349.2 M 177.2 349.2 L 181.2 349.2 M 181.2 349.2 M 183.2 349.2 L 187.2 349.2 M 187.2 349.2 M 189.2 349.2 L 193.2 349.2 M 193.2 349.2 M 195.2 349.2 L 199.2 349.2 M 199.2 349.2 M 201.2 349.2 L 205.2 349.2 M 205.2 349.2 M 207.2 349.2 L 211.2 349.2 M 211.2 349.2 M 213.2 349.2 L 217.2 349.2 M 217.2 349.2 M 219.2 349.2 L 223.2 349.2 M 223.2 349.2 M 225.2 349.2 L 229.2 349.2 M 229.2 349.2 M 231.2 349.2 L 235.2 349.2 M 235.2 349.2 M 237.2 349.2 L 241.2 349.2 M 241.2 349.2 M 243.2 349.2 L 247.2 349.2 M 247.2 349.2 M 249.2 349.2 L 253.2 349.2 M 253.2 349.2 M 255.2 349.2 L 259.2 349.2 M 259.2 349.2 M 261.2 349.2 L 265.2 349.2 M 265.2 349.2 M 267.2 349.2 L 271.2 349.2 M 271.2 349.2 M 273.2 349.2 L 277.2 349.2 M 277.2 349.2 M 279.2 349.2 L 283.2 349.2 M 283.2 349.2 M 285.2 349.2 L 289.2 349.2 M 289.2 349.2 M 291.2 349.2 L 295.2 349.2 M 295.2 349.2 M 297.2 349.2 L 301.2 349.2 M 301.2 349.2 M 303.2 349.2 L 307.2 349.2 M 307.2 349.2 M 309.2 349.2 L 313.2 349.2 M 313.2 349.2 M 315.2 349.2 L 319.2 349.2 M 319.2 349.2 M 321.2 349.2 L 325.2 349.2 M 325.2 349.2 M 327.2 349.2 L 331.2 349.2 M 331.2 349.2 M 333.2 349.2 L 337.2 349.2 M 337.2 349.2 M 339.2 349.2 L 343.2 349.2 M 343.2 349.2 M 345.2 349.2 L 349.2 349.2 M 349.2 349.2 M 351.2 349.2 L 355.2 349.2 M 355.2 349.2 M 357.2 349.2 L 361.2 349.2 M 361.2 349.2 M 363.2 349.2 L 367.2 349.2 M 367.2 349.2 M 369.2 349.2 L 373.2 349.2 M 373.2 349.2 M 375.2 349.2 L 379.2 349.2 M 379.2 349.2 M 381.2 349.2 L 385.2 349.2 M 385.2 349.2 M 387.2 349.2 L 391.2 349.2 M 391.2 349.2 M 393.2 349.2 L 397.2 349.2 M 397.2 349.2 M 399.2 349.2 L 403.2 349.2 M 403.2 349.2 M 405.2 349.2 L 409.2 349.2 M 409.2 349.2 M 411.2 349.2 L 415.2 349.2 M 415.2 349.2 M 417.2 349.2 L 421.2 349.2 M 421.2 349.2 M 423.2 349.2 L 427.2 349.2 M 427.2 349.2 M 429.2 349.2 L 433.2 349.2 M 433.2 349.2 M 435.2 349.2 L 439.2 349.2 M 439.2 349.2 M 441.2 349.2 L 445.2 349.2 M 445.2 349.2 M 447.2 349.2 L 451.2 349.2 M 451.2 349.2 M 453.2 349.2 L 457.2 349.2 M 457.2 349.2 M 459.2 349.2 L 463.2 349.2 M 463.2 349.2 M 465.2 349.2 L 469.2 349.2 M 469.2 349.2 M 471.2 349.2 L 475.2 349.2 M 475.2 349.2 M 477.2 349.2 L 481.2 349.2 M 481.2 349.2 M 483.2 349.2 L 487.2 349.2 M 487.2 349.2 M 489.2 349.2 L 493.2 349.2 M 493.2 349.2 M 495.2 349.2 L 499.2 349.2 M 499.2 349.2 M 501.2 349.2 L 505.2 349.2 M 505.2 349.2 M 507.2 349.2 L 511.2 349.2 M 511.2 349.2 M 513.2 349.2 L 517.2 349.2 M 517.2 349.2 M 519.2 349.2 L 523.2 349.2 M 523.2 349.2 M 525.2 349.2 L 529.2 349.2 M 529.2 349.2 M 531.2 349.2 L 535.2 349.2 M 535.2 349.2 M 537.2 349.2 L 541.2 349.2 M 541.2 349.2 M 543.2 349.2 L 547.2 349.2 M 547.2 349.2 M 549.2 349.2 L 553.2 349.2 M 553.2 349.2 M 555.2 349.2 L 559.2 349.2 M 559.2 349.2 M 561.2 349.2 L 565.2 349.2 M 565.2 349.2 M 567.2 349.2 L 571.2 349.2 M 571.2 349.2 M 573.2 349.2 L 577.2 349.2 M 577.2 349.2 M 579.2 349.2 L 583.2 349.2 M 583.2 349.2 M 585.2 349.2 L 589.2 349.2 M 589.2 349.2 M 591.2 349.2 L 595.2 349.2 M 595.2 349.2 M 597.2 349.2 L 601.2 349.2 M 601.2 349.2 M 603.2 349.2 L 607.2 349.2 M 607.2 349.2 M 609.2 349.2 L 613.2 349.2 M 613.2 349.2 M 615.2 349.2 L 619.2 349.2 M 619.2 349.2 M 621.2 349.2 L 625.2 349.2 M 625.2 349.2 M 627.2 349.2 L 631.2 349.2 M 631.2 349.2 M 633.2 349.2 L 637.2 349.2 M 637.2 349.2 M 639.2 349.2 L 643.2 349.2 M 643.2 349.2 M 645.2 349.2 L 649.2 349.2 M 649.2 349.2 M 651.2 349.2 L 655.2 349.2 M 655.2 349.2 M 657.2 349.2 L 661.2 349.2 M 661.2 349.2 M 663.2 349.2 L 667.2 349.2 M 667.2 349.2 M 669.2 349.2 L 673.2 349.2 M 673.2 349.2 M 675.2 349.2 L 679.2 349.2 M 679.2 349.2 M 681.2 349.2 L 685.2 349.2 M 685.2 349.2 M 687.2 349.2 L 691.2 349.2 M 691.2 349.2 M 693.2 349.2 L 697.2 349.2 M 697.2 349.2 M 699.2 349.2 L 703.2 349.2 M 703.2 349.2 M 705.2 349.2 L 709.2 349.2 M 709.2 349.2 M 711.2 349.2 L 715.2 349.2 M 715.2 349.2 M 717.2 349.2 L 721.2 349.2 M 721.2 349.2 M 723.2 349.2 L 727.2 349.2 M 727.2 349.2 M 729.2 349.2 L 733.2 349.2 M 733.2 349.2 M 735.2 349.2 L 737.1999999999999 349.2 L 737.1999999999999 347.1999999999999 M 737.1999999999999 347.1999999999999 M 737.1999999999999 345.1999999999999 L 737.1999999999999 341.1999999999999 M 737.1999999999999 341.1999999999999 M 737.1999999999999 339.1999999999999 L 737.1999999999999 335.1999999999999 M 737.1999999999999 335.1999999999999 M 737.1999999999999 333.1999999999999 L 737.1999999999999 329.1999999999999 M 737.1999999999999 329.1999999999999 M 737.1999999999999 327.1999999999999 L 737.1999999999999 323.1999999999999 M 737.1999999999999 323.1999999999999 M 737.1999999999999 321.1999999999999 L 737.1999999999999 317.1999999999999 M 737.1999999999999 317.1999999999999 M 737.1999999999999 315.1999999999999 L 737.1999999999999 311.1999999999999 M 737.1999999999999 311.1999999999999 M 737.1999999999999 309.1999999999999 L 737.1999999999999 305.1999999999999 M 737.1999999999999 305.1999999999999 M 737.1999999999999 303.1999999999999 L 737.1999999999999 299.1999999999999 M 737.1999999999999 299.1999999999999 M 737.1999999999999 297.1999999999999 L 737.1999999999999 293.1999999999999 M 737.1999999999999 293.1999999999999 M 737.1999999999999 291.1999999999999 L 737.1999999999999 287.1999999999999 M 737.1999999999999 287.1999999999999 M 737.1999999999999 285.1999999999999 L 737.1999999999999 281.1999999999999 M 737.1999999999999 281.1999999999999 M 737.1999999999999 279.1999999999999 L 737.1999999999999 275.1999999999999 M 737.1999999999999 275.1999999999999 M 737.1999999999999 273.1999999999999 L 737.1999999999999 269.1999999999999 M 737.1999999999999 269.1999999999999 M 737.1999999999999 267.1999999999999 L 737.1999999999999 263.1999999999999 M 737.1999999999999 263.1999999999999 M 737.1999999999999 261.1999999999999 L 737.1999999999999 257.1999999999999 M 737.1999999999999 257.1999999999999 M 737.1999999999999 255.19999999999987 L 737.1999999999999 251.19999999999987 M 737.1999999999999 251.19999999999987 M 737.1999999999999 249.19999999999987 L 737.1999999999999 245.19999999999987 M 737.1999999999999 245.19999999999987 M 737.1999999999999 243.19999999999987 L 737.1999999999999 239.19999999999987 M 737.1999999999999 239.19999999999987 M 737.1999999999999 237.19999999999987 L 737.1999999999999 233.19999999999987 M 737.1999999999999 233.19999999999987 M 737.1999999999999 231.19999999999987 L 737.1999999999999 227.19999999999987 M 737.1999999999999 227.19999999999987 M 737.1999999999999 225.19999999999987 L 737.1999999999999 221.19999999999987 M 737.1999999999999 221.19999999999987 M 737.1999999999999 219.19999999999987 L 737.1999999999999 215.19999999999987 M 737.1999999999999 215.19999999999987 M 737.1999999999999 213.19999999999987 L 737.1999999999999 209.19999999999987 M 737.1999999999999 209.19999999999987 M 737.1999999999999 207.19999999999987 L 737.1999999999999 203.19999999999987 M 737.1999999999999 203.19999999999987 M 737.1999999999999 201.19999999999987 L 737.1999999999999 197.19999999999987 M 737.1999999999999 197.19999999999987 M 737.1999999999999 195.19999999999987 L 737.1999999999999 191.19999999999987 M 737.1999999999999 191.19999999999987 M 737.1999999999999 189.19999999999987 L 737.1999999999999 185.19999999999987 M 737.1999999999999 185.19999999999987 M 737.1999999999999 183.19999999999987 L 737.1999999999999 179.19999999999987 M 737.1999999999999 179.19999999999987 M 737.1999999999999 177.19999999999987 L 737.1999999999999 173.19999999999987 M 737.1999999999999 173.19999999999987 M 737.1999999999999 171.19999999999987 L 737.1999999999999 167.19999999999987 M 737.1999999999999 167.19999999999987 M 737.1999999999999 165.19999999999987 L 737.1999999999999 161.19999999999987 M 737.1999999999999 161.19999999999987 M 737.1999999999999 159.19999999999987 L 737.1999999999999 155.19999999999987 M 737.1999999999999 155.19999999999987 M 737.1999999999999 153.19999999999987 L 737.1999999999999 149.19999999999987 M 737.1999999999999 149.19999999999987 M 737.1999999999999 147.19999999999987 L 737.1999999999999 143.19999999999987 M 737.1999999999999 143.19999999999987 M 737.1999999999999 141.19999999999987 L 737.1999999999999 137.19999999999987 M 737.1999999999999 137.19999999999987 M 737.1999999999999 135.19999999999987 L 737.1999999999999 131.19999999999987 M 737.1999999999999 131.19999999999987 M 737.1999999999999 129.19999999999987 L 737.1999999999999 125.19999999999987 M 737.1999999999999 125.19999999999987 M 737.1999999999999 123.19999999999987 L 737.1999999999999 119.19999999999987 M 737.1999999999999 119.19999999999987 M 737.1999999999999 117.19999999999987 L 737.1999999999999 113.19999999999987 M 737.1999999999999 113.19999999999987 M 737.1999999999999 111.19999999999987 L 737.1999999999999 107.19999999999987 M 737.1999999999999 107.19999999999987 M 737.1999999999999 105.19999999999987 L 737.1999999999999 101.19999999999987 M 737.1999999999999 101.19999999999987 M 737.1999999999999 99.19999999999987 L 737.1999999999999 95.19999999999987 M 737.1999999999999 95.19999999999987 M 737.1999999999999 93.19999999999987 L 737.1999999999999 89.19999999999987 M 737.1999999999999 89.19999999999987 M 737.1999999999999 87.19999999999987 L 737.1999999999999 83.19999999999987 M 737.1999999999999 83.19999999999987 M 737.1999999999999 81.19999999999987 L 737.1999999999999 77.19999999999987 M 737.1999999999999 77.19999999999987 M 737.1999999999999 75.19999999999987 L 737.1999999999999 71.19999999999987 M 737.1999999999999 71.19999999999987 M 737.1999999999999 69.19999999999987 L 737.1999999999999 65.19999999999987 M 737.1999999999999 65.19999999999987 M 737.1999999999999 63.199999999999875 L 737.1999999999999 59.199999999999875 M 737.1999999999999 59.199999999999875 M 737.1999999999999 57.199999999999875 L 737.1999999999999 53.199999999999875 M 737.1999999999999 53.199999999999875 M 737.1999999999999 51.199999999999875 L 737.1999999999999 47.199999999999875 M 737.1999999999999 47.199999999999875 M 737.1999999999999 45.199999999999875 L 737.1999999999999 41.199999999999875 M 737.1999999999999 41.199999999999875 M 737.1999999999999 39.199999999999875 L 737.1999999999999 35.199999999999875 M 737.1999999999999 35.199999999999875 M 737.1999999999999 33.199999999999875 L 737.1999999999999 29.199999999999875 M 737.1999999999999 29.199999999999875 M 737.1999999999999 27.199999999999875 L 737.1999999999999 23.199999999999875 M 737.1999999999999 23.199999999999875 M 737.1999999999999 21.199999999999875 L 737.1999999999999 17.199999999999875 M 737.1999999999999 17.199999999999875 M 737.1999999999999 15.199999999999875 L 737.1999999999999 11.199999999999875 M 737.1999999999999 11.199999999999875 M 735.5999999999998 10.8 L 731.5999999999998 10.8 M 731.5999999999998 10.8 M 729.5999999999998 10.8 L 725.5999999999998 10.8 M 725.5999999999998 10.8 M 723.5999999999998 10.8 L 719.5999999999998 10.8 M 719.5999999999998 10.8 M 717.5999999999998 10.8 L 713.5999999999998 10.8 M 713.5999999999998 10.8 M 711.5999999999998 10.8 L 707.5999999999998 10.8 M 707.5999999999998 10.8 M 705.5999999999998 10.8 L 701.5999999999998 10.8 M 701.5999999999998 10.8 M 699.5999999999998 10.8 L 695.5999999999998 10.8 M 695.5999999999998 10.8 M 693.5999999999998 10.8 L 689.5999999999998 10.8 M 689.5999999999998 10.8 M 687.5999999999998 10.8 L 683.5999999999998 10.8 M 683.5999999999998 10.8 M 681.5999999999998 10.8 L 677.5999999999998 10.8 M 677.5999999999998 10.8 M 675.5999999999998 10.8 L 671.5999999999998 10.8 M 671.5999999999998 10.8 M 669.5999999999998 10.8 L 665.5999999999998 10.8 M 665.5999999999998 10.8 M 663.5999999999998 10.8 L 659.5999999999998 10.8 M 659.5999999999998 10.8 M 657.5999999999998 10.8 L 653.5999999999998 10.8 M 653.5999999999998 10.8 M 651.5999999999998 10.8 L 647.5999999999998 10.8 M 647.5999999999998 10.8 M 645.5999999999998 10.8 L 641.5999999999998 10.8 M 641.5999999999998 10.8 M 639.5999999999998 10.8 L 635.5999999999998 10.8 M 635.5999999999998 10.8 M 633.5999999999998 10.8 L 629.5999999999998 10.8 M 629.5999999999998 10.8 M 627.5999999999998 10.8 L 623.5999999999998 10.8 M 623.5999999999998 10.8 M 621.5999999999998 10.8 L 617.5999999999998 10.8 M 617.5999999999998 10.8 M 615.5999999999998 10.8 L 611.5999999999998 10.8 M 611.5999999999998 10.8 M 609.5999999999998 10.8 L 605.5999999999998 10.8 M 605.5999999999998 10.8 M 603.5999999999998 10.8 L 599.5999999999998 10.8 M 599.5999999999998 10.8 M 597.5999999999998 10.8 L 593.5999999999998 10.8 M 593.5999999999998 10.8 M 591.5999999999998 10.8 L 587.5999999999998 10.8 M 587.5999999999998 10.8 M 585.5999999999998 10.8 L 581.5999999999998 10.8 M 581.5999999999998 10.8 M 579.5999999999998 10.8 L 575.5999999999998 10.8 M 575.5999999999998 10.8 M 573.5999999999998 10.8 L 569.5999999999998 10.8 M 569.5999999999998 10.8 M 567.5999999999998 10.8 L 563.5999999999998 10.8 M 563.5999999999998 10.8 M 561.5999999999998 10.8 L 557.5999999999998 10.8 M 557.5999999999998 10.8 M 555.5999999999998 10.8 L 551.5999999999998 10.8 M 551.5999999999998 10.8 M 549.5999999999998 10.8 L 545.5999999999998 10.8 M 545.5999999999998 10.8 M 543.5999999999998 10.8 L 539.5999999999998 10.8 M 539.5999999999998 10.8 M 537.5999999999998 10.8 L 533.5999999999998 10.8 M 533.5999999999998 10.8 M 531.5999999999998 10.8 L 527.5999999999998 10.8 M 527.5999999999998 10.8 M 525.5999999999998 10.8 L 521.5999999999998 10.8 M 521.5999999999998 10.8 M 519.5999999999998 10.8 L 515.5999999999998 10.8 M 515.5999999999998 10.8 M 513.5999999999998 10.8 L 509.5999999999998 10.8 M 509.5999999999998 10.8 M 507.5999999999998 10.8 L 503.5999999999998 10.8 M 503.5999999999998 10.8 M 501.5999999999998 10.8 L 497.5999999999998 10.8 M 497.5999999999998 10.8 M 495.5999999999998 10.8 L 491.5999999999998 10.8 M 491.5999999999998 10.8 M 489.5999999999998 10.8 L 485.5999999999998 10.8 M 485.5999999999998 10.8 M 483.5999999999998 10.8 L 479.5999999999998 10.8 M 479.5999999999998 10.8 M 477.5999999999998 10.8 L 473.5999999999998 10.8 M 473.5999999999998 10.8 M 471.5999999999998 10.8 L 467.5999999999998 10.8 M 467.5999999999998 10.8 M 465.5999999999998 10.8 L 461.5999999999998 10.8 M 461.5999999999998 10.8 M 459.5999999999998 10.8 L 455.5999999999998 10.8 M 455.5999999999998 10.8 M 453.5999999999998 10.8 L 449.5999999999998 10.8 M 449.5999999999998 10.8 M 447.5999999999998 10.8 L 443.5999999999998 10.8 M 443.5999999999998 10.8 M 441.5999999999998 10.8 L 437.5999999999998 10.8 M 437.5999999999998 10.8 M 435.5999999999998 10.8 L 431.5999999999998 10.8 M 431.5999999999998 10.8 M 429.5999999999998 10.8 L 425.5999999999998 10.8 M 425.5999999999998 10.8 M 423.5999999999998 10.8 L 419.5999999999998 10.8 M 419.5999999999998 10.8 M 417.5999999999998 10.8 L 413.5999999999998 10.8 M 413.5999999999998 10.8 M 411.5999999999998 10.8 L 407.5999999999998 10.8 M 407.5999999999998 10.8 M 405.5999999999998 10.8 L 401.5999999999998 10.8 M 401.5999999999998 10.8 M 399.5999999999998 10.8 L 395.5999999999998 10.8 M 395.5999999999998 10.8 M 393.5999999999998 10.8 L 389.5999999999998 10.8 M 389.5999999999998 10.8 M 387.5999999999998 10.8 L 383.5999999999998 10.8 M 383.5999999999998 10.8 M 381.5999999999998 10.8 L 377.5999999999998 10.8 M 377.5999999999998 10.8 M 375.5999999999998 10.8 L 371.5999999999998 10.8 M 371.5999999999998 10.8 M 369.5999999999998 10.8 L 365.5999999999998 10.8 M 365.5999999999998 10.8 M 363.5999999999998 10.8 L 359.5999999999998 10.8 M 359.5999999999998 10.8 M 357.5999999999998 10.8 L 353.5999999999998 10.8 M 353.5999999999998 10.8 M 351.5999999999998 10.8 L 347.5999999999998 10.8 M 347.5999999999998 10.8 M 345.5999999999998 10.8 L 341.5999999999998 10.8 M 341.5999999999998 10.8 M 339.5999999999998 10.8 L 335.5999999999998 10.8 M 335.5999999999998 10.8 M 333.5999999999998 10.8 L 329.5999999999998 10.8 M 329.5999999999998 10.8 M 327.5999999999998 10.8 L 323.5999999999998 10.8 M 323.5999999999998 10.8 M 321.5999999999998 10.8 L 317.5999999999998 10.8 M 317.5999999999998 10.8 M 315.5999999999998 10.8 L 311.5999999999998 10.8 M 311.5999999999998 10.8 M 309.5999999999998 10.8 L 305.5999999999998 10.8 M 305.5999999999998 10.8 M 303.5999999999998 10.8 L 299.5999999999998 10.8 M 299.5999999999998 10.8 M 297.5999999999998 10.8 L 293.5999999999998 10.8 M 293.5999999999998 10.8 M 291.5999999999998 10.8 L 287.5999999999998 10.8 M 287.5999999999998 10.8 M 285.5999999999998 10.8 L 281.5999999999998 10.8 M 281.5999999999998 10.8 M 279.5999999999998 10.8 L 275.5999999999998 10.8 M 275.5999999999998 10.8 M 273.5999999999998 10.8 L 269.5999999999998 10.8 M 269.5999999999998 10.8 M 267.5999999999998 10.8 L 263.5999999999998 10.8 M 263.5999999999998 10.8 M 261.5999999999998 10.8 L 257.5999999999998 10.8 M 257.5999999999998 10.8 M 255.5999999999998 10.8 L 251.5999999999998 10.8 M 251.5999999999998 10.8 M 249.5999999999998 10.8 L 245.5999999999998 10.8 M 245.5999999999998 10.8 M 243.5999999999998 10.8 L 239.5999999999998 10.8 M 239.5999999999998 10.8 M 237.5999999999998 10.8 L 233.5999999999998 10.8 M 233.5999999999998 10.8 M 231.5999999999998 10.8 L 227.5999999999998 10.8 M 227.5999999999998 10.8 M 225.5999999999998 10.8 L 221.5999999999998 10.8 M 221.5999999999998 10.8 M 219.5999999999998 10.8 L 215.5999999999998 10.8 M 215.5999999999998 10.8 M 213.5999999999998 10.8 L 209.5999999999998 10.8 M 209.5999999999998 10.8 M 207.5999999999998 10.8 L 203.5999999999998 10.8 M 203.5999999999998 10.8 M 201.5999999999998 10.8 L 197.5999999999998 10.8 M 197.5999999999998 10.8 M 195.5999999999998 10.8 L 191.5999999999998 10.8 M 191.5999999999998 10.8 M 189.5999999999998 10.8 L 185.5999999999998 10.8 M 185.5999999999998 10.8 M 183.5999999999998 10.8 L 179.5999999999998 10.8 M 179.5999999999998 10.8 M 177.5999999999998 10.8 L 173.5999999999998 10.8 M 173.5999999999998 10.8 M 171.5999999999998 10.8 L 167.5999999999998 10.8 M 167.5999999999998 10.8 M 165.5999999999998 10.8 L 161.5999999999998 10.8 M 161.5999999999998 10.8 M 159.5999999999998 10.8 L 155.5999999999998 10.8 M 155.5999999999998 10.8 M 153.5999999999998 10.8 L 149.5999999999998 10.8 M 149.5999999999998 10.8 M 147.5999999999998 10.8 L 143.5999999999998 10.8 M 143.5999999999998 10.8 M 141.5999999999998 10.8 L 137.5999999999998 10.8 M 137.5999999999998 10.8 M 135.5999999999998 10.8 L 131.5999999999998 10.8 M 131.5999999999998 10.8 M 129.5999999999998 10.8 L 125.5999999999998 10.8 M 125.5999999999998 10.8 M 123.5999999999998 10.8 L 119.5999999999998 10.8 M 119.5999999999998 10.8 M 117.5999999999998 10.8 L 113.5999999999998 10.8 M 113.5999999999998 10.8 M 111.5999999999998 10.8 L 107.5999999999998 10.8 M 107.5999999999998 10.8 M 105.5999999999998 10.8 L 101.5999999999998 10.8 M 101.5999999999998 10.8 M 99.5999999999998 10.8 L 95.5999999999998 10.8 M 95.5999999999998 10.8 M 93.5999999999998 10.8 L 89.5999999999998 10.8 M 89.5999999999998 10.8 M 87.5999999999998 10.8 L 83.5999999999998 10.8 M 83.5999999999998 10.8 M 81.5999999999998 10.8 L 77.5999999999998 10.8 M 77.5999999999998 10.8 M 75.5999999999998 10.8 L 71.5999999999998 10.8 M 71.5999999999998 10.8 M 69.5999999999998 10.8 L 65.5999999999998 10.8 M 65.5999999999998 10.8 M 63.599999999999795 10.8 L 59.599999999999795 10.8 M 59.599999999999795 10.8 M 57.599999999999795 10.8 L 53.599999999999795 10.8 M 53.599999999999795 10.8 M 51.599999999999795 10.8 L 47.599999999999795 10.8 M 47.599999999999795 10.8 M 45.599999999999795 10.8 L 41.599999999999795 10.8 M 41.599999999999795 10.8 M 39.599999999999795 10.8 L 35.599999999999795 10.8 M 35.599999999999795 10.8 M 33.599999999999795 10.8 L 29.599999999999795 10.8 M 29.599999999999795 10.8 M 27.599999999999795 10.8 L 23.599999999999795 10.8 M 23.599999999999795 10.8 Z" stroke-miterlimit="10" opacity="0"></path></g></g></g></g></g><g transform="translate(0,0) matrix(1,0,0,1,75.04545454545453,118)"><g><g transform="translate(0,0) scale(0.5154545454545453,0.7363636363636364)"><g><path fill="#FFFFFF" stroke="none" d="M 0 0 L 100 0 Q 100 0 100 0 L 100 100 Q 100 100 100 100 L 0 100 Q 0 100 0 100 L 0 0 Q 0 0 0 0 Z"></path><g transform="scale(1.9400352733686075,1.3580246913580245)"><path fill="none" stroke="#333333" d="M 0 0 L 51.545454545454525 0 Q 51.545454545454525 0 51.545454545454525 0 L 51.545454545454525 73.63636363636364 Q 51.545454545454525 73.63636363636364 51.545454545454525 73.63636363636364 L 0 73.63636363636364 Q 0 73.63636363636364 0 73.63636363636364 L 0 0 Q 0 0 0 0 Z" stroke-miterlimit="10" stroke-width="2"></path></g></g><g><g transform="scale(1.9400352733686075,1.3580246913580245)"><path fill="rgb(0,0,0)" stroke="none" d="M 1.0309090909090906 1.4727272727272729 L 1.0309090909090906 71.42727272727274 L 49.99909090909089 71.42727272727274 L 49.99909090909089 2.2090909090909094 L 1.546363636363636 2.2090909090909094 Z" fill-opacity="0" opacity="0"></path><path fill="none" stroke="#3C7626" d="M 1.0309090909090906 1.4727272727272729 M 1.0309090909090906 1.4727272727272729 L 1.0309090909090906 5.472727272727273 M 1.0309090909090906 5.472727272727273 M 1.0309090909090906 7.472727272727273 L 1.0309090909090906 11.472727272727273 M 1.0309090909090906 11.472727272727273 M 1.0309090909090906 13.472727272727273 L 1.0309090909090906 17.472727272727273 M 1.0309090909090906 17.472727272727273 M 1.0309090909090906 19.472727272727273 L 1.0309090909090906 23.472727272727273 M 1.0309090909090906 23.472727272727273 M 1.0309090909090906 25.472727272727273 L 1.0309090909090906 29.472727272727273 M 1.0309090909090906 29.472727272727273 M 1.0309090909090906 31.472727272727273 L 1.0309090909090906 35.47272727272727 M 1.0309090909090906 35.47272727272727 M 1.0309090909090906 37.47272727272727 L 1.0309090909090906 41.47272727272727 M 1.0309090909090906 41.47272727272727 M 1.0309090909090906 43.47272727272727 L 1.0309090909090906 47.47272727272727 M 1.0309090909090906 47.47272727272727 M 1.0309090909090906 49.47272727272727 L 1.0309090909090906 53.47272727272727 M 1.0309090909090906 53.47272727272727 M 1.0309090909090906 55.47272727272727 L 1.0309090909090906 59.47272727272727 M 1.0309090909090906 59.47272727272727 M 1.0309090909090906 61.47272727272727 L 1.0309090909090906 65.47272727272727 M 1.0309090909090906 65.47272727272727 M 1.0309090909090906 67.47272727272727 L 1.0309090909090906 71.42727272727274 L 1.076363636363623 71.42727272727274 M 1.076363636363623 71.42727272727274 M 3.076363636363623 71.42727272727274 L 7.076363636363623 71.42727272727274 M 7.076363636363623 71.42727272727274 M 9.076363636363624 71.42727272727274 L 13.076363636363624 71.42727272727274 M 13.076363636363624 71.42727272727274 M 15.076363636363624 71.42727272727274 L 19.076363636363624 71.42727272727274 M 19.076363636363624 71.42727272727274 M 21.076363636363624 71.42727272727274 L 25.076363636363624 71.42727272727274 M 25.076363636363624 71.42727272727274 M 27.076363636363624 71.42727272727274 L 31.076363636363624 71.42727272727274 M 31.076363636363624 71.42727272727274 M 33.076363636363624 71.42727272727274 L 37.076363636363624 71.42727272727274 M 37.076363636363624 71.42727272727274 M 39.076363636363624 71.42727272727274 L 43.076363636363624 71.42727272727274 M 43.076363636363624 71.42727272727274 M 45.076363636363624 71.42727272727274 L 49.076363636363624 71.42727272727274 M 49.076363636363624 71.42727272727274 M 49.99909090909089 70.35 L 49.99909090909089 66.35 M 49.99909090909089 66.35 M 49.99909090909089 64.35 L 49.99909090909089 60.349999999999994 M 49.99909090909089 60.349999999999994 M 49.99909090909089 58.349999999999994 L 49.99909090909089 54.349999999999994 M 49.99909090909089 54.349999999999994 M 49.99909090909089 52.349999999999994 L 49.99909090909089 48.349999999999994 M 49.99909090909089 48.349999999999994 M 49.99909090909089 46.349999999999994 L 49.99909090909089 42.349999999999994 M 49.99909090909089 42.349999999999994 M 49.99909090909089 40.349999999999994 L 49.99909090909089 36.349999999999994 M 49.99909090909089 36.349999999999994 M 49.99909090909089 34.349999999999994 L 49.99909090909089 30.349999999999994 M 49.99909090909089 30.349999999999994 M 49.99909090909089 28.349999999999994 L 49.99909090909089 24.349999999999994 M 49.99909090909089 24.349999999999994 M 49.99909090909089 22.349999999999994 L 49.99909090909089 18.349999999999994 M 49.99909090909089 18.349999999999994 M 49.99909090909089 16.349999999999994 L 49.99909090909089 12.349999999999994 M 49.99909090909089 12.349999999999994 M 49.99909090909089 10.349999999999994 L 49.99909090909089 6.349999999999994 M 49.99909090909089 6.349999999999994 M 49.99909090909089 4.349999999999994 L 49.99909090909089 2.2090909090909094 L 48.13999999999997 2.2090909090909094 M 48.13999999999997 2.2090909090909094 M 46.13999999999997 2.2090909090909094 L 42.13999999999997 2.2090909090909094 M 42.13999999999997 2.2090909090909094 M 40.13999999999997 2.2090909090909094 L 36.13999999999997 2.2090909090909094 M 36.13999999999997 2.2090909090909094 M 34.13999999999997 2.2090909090909094 L 30.139999999999972 2.2090909090909094 M 30.139999999999972 2.2090909090909094 M 28.139999999999972 2.2090909090909094 L 24.139999999999972 2.2090909090909094 M 24.139999999999972 2.2090909090909094 M 22.139999999999972 2.2090909090909094 L 18.139999999999972 2.2090909090909094 M 18.139999999999972 2.2090909090909094 M 16.139999999999972 2.2090909090909094 L 12.139999999999972 2.2090909090909094 M 12.139999999999972 2.2090909090909094 M 10.139999999999972 2.2090909090909094 L 6.139999999999972 2.2090909090909094 M 6.139999999999972 2.2090909090909094 M 4.139999999999972 2.2090909090909094 L 1.546363636363636 2.2090909090909094 Z" stroke-miterlimit="10" stroke-width="2" opacity="0"></path></g></g></g></g></g><g transform="translate(0,0) matrix(1,0,0,1,83.22727272727272,126.18181818181819)"><g><g transform="translate(0,0) scale(0.5154545454545453,0.7363636363636364)"><g><path fill="#FFFFFF" stroke="none" d="M 0 0 L 100 0 Q 100 0 100 0 L 100 100 Q 100 100 100 100 L 0 100 Q 0 100 0 100 L 0 0 Q 0 0 0 0 Z"></path><g transform="scale(1.9400352733686075,1.3580246913580245)"><path fill="none" stroke="#333333" d="M 0 0 L 51.545454545454525 0 Q 51.545454545454525 0 51.545454545454525 0 L 51.545454545454525 73.63636363636364 Q 51.545454545454525 73.63636363636364 51.545454545454525 73.63636363636364 L 0 73.63636363636364 Q 0 73.63636363636364 0 73.63636363636364 L 0 0 Q 0 0 0 0 Z" stroke-miterlimit="10" stroke-width="2"></path></g></g><g><g transform="scale(1.9400352733686075,1.3580246913580245)"><path fill="rgb(0,0,0)" stroke="none" d="M 1.0309090909090906 1.4727272727272729 L 1.0309090909090906 71.42727272727274 L 49.99909090909089 71.42727272727274 L 49.99909090909089 2.2090909090909094 L 1.546363636363636 2.2090909090909094 Z" fill-opacity="0" opacity="0"></path><path fill="none" stroke="#3C7626" d="M 1.0309090909090906 1.4727272727272729 M 1.0309090909090906 1.4727272727272729 L 1.0309090909090906 5.472727272727273 M 1.0309090909090906 5.472727272727273 M 1.0309090909090906 7.472727272727273 L 1.0309090909090906 11.472727272727273 M 1.0309090909090906 11.472727272727273 M 1.0309090909090906 13.472727272727273 L 1.0309090909090906 17.472727272727273 M 1.0309090909090906 17.472727272727273 M 1.0309090909090906 19.472727272727273 L 1.0309090909090906 23.472727272727273 M 1.0309090909090906 23.472727272727273 M 1.0309090909090906 25.472727272727273 L 1.0309090909090906 29.472727272727273 M 1.0309090909090906 29.472727272727273 M 1.0309090909090906 31.472727272727273 L 1.0309090909090906 35.47272727272727 M 1.0309090909090906 35.47272727272727 M 1.0309090909090906 37.47272727272727 L 1.0309090909090906 41.47272727272727 M 1.0309090909090906 41.47272727272727 M 1.0309090909090906 43.47272727272727 L 1.0309090909090906 47.47272727272727 M 1.0309090909090906 47.47272727272727 M 1.0309090909090906 49.47272727272727 L 1.0309090909090906 53.47272727272727 M 1.0309090909090906 53.47272727272727 M 1.0309090909090906 55.47272727272727 L 1.0309090909090906 59.47272727272727 M 1.0309090909090906 59.47272727272727 M 1.0309090909090906 61.47272727272727 L 1.0309090909090906 65.47272727272727 M 1.0309090909090906 65.47272727272727 M 1.0309090909090906 67.47272727272727 L 1.0309090909090906 71.42727272727274 L 1.076363636363623 71.42727272727274 M 1.076363636363623 71.42727272727274 M 3.076363636363623 71.42727272727274 L 7.076363636363623 71.42727272727274 M 7.076363636363623 71.42727272727274 M 9.076363636363624 71.42727272727274 L 13.076363636363624 71.42727272727274 M 13.076363636363624 71.42727272727274 M 15.076363636363624 71.42727272727274 L 19.076363636363624 71.42727272727274 M 19.076363636363624 71.42727272727274 M 21.076363636363624 71.42727272727274 L 25.076363636363624 71.42727272727274 M 25.076363636363624 71.42727272727274 M 27.076363636363624 71.42727272727274 L 31.076363636363624 71.42727272727274 M 31.076363636363624 71.42727272727274 M 33.076363636363624 71.42727272727274 L 37.076363636363624 71.42727272727274 M 37.076363636363624 71.42727272727274 M 39.076363636363624 71.42727272727274 L 43.076363636363624 71.42727272727274 M 43.076363636363624 71.42727272727274 M 45.076363636363624 71.42727272727274 L 49.076363636363624 71.42727272727274 M 49.076363636363624 71.42727272727274 M 49.99909090909089 70.35 L 49.99909090909089 66.35 M 49.99909090909089 66.35 M 49.99909090909089 64.35 L 49.99909090909089 60.349999999999994 M 49.99909090909089 60.349999999999994 M 49.99909090909089 58.349999999999994 L 49.99909090909089 54.349999999999994 M 49.99909090909089 54.349999999999994 M 49.99909090909089 52.349999999999994 L 49.99909090909089 48.349999999999994 M 49.99909090909089 48.349999999999994 M 49.99909090909089 46.349999999999994 L 49.99909090909089 42.349999999999994 M 49.99909090909089 42.349999999999994 M 49.99909090909089 40.349999999999994 L 49.99909090909089 36.349999999999994 M 49.99909090909089 36.349999999999994 M 49.99909090909089 34.349999999999994 L 49.99909090909089 30.349999999999994 M 49.99909090909089 30.349999999999994 M 49.99909090909089 28.349999999999994 L 49.99909090909089 24.349999999999994 M 49.99909090909089 24.349999999999994 M 49.99909090909089 22.349999999999994 L 49.99909090909089 18.349999999999994 M 49.99909090909089 18.349999999999994 M 49.99909090909089 16.349999999999994 L 49.99909090909089 12.349999999999994 M 49.99909090909089 12.349999999999994 M 49.99909090909089 10.349999999999994 L 49.99909090909089 6.349999999999994 M 49.99909090909089 6.349999999999994 M 49.99909090909089 4.349999999999994 L 49.99909090909089 2.2090909090909094 L 48.13999999999997 2.2090909090909094 M 48.13999999999997 2.2090909090909094 M 46.13999999999997 2.2090909090909094 L 42.13999999999997 2.2090909090909094 M 42.13999999999997 2.2090909090909094 M 40.13999999999997 2.2090909090909094 L 36.13999999999997 2.2090909090909094 M 36.13999999999997 2.2090909090909094 M 34.13999999999997 2.2090909090909094 L 30.139999999999972 2.2090909090909094 M 30.139999999999972 2.2090909090909094 M 28.139999999999972 2.2090909090909094 L 24.139999999999972 2.2090909090909094 M 24.139999999999972 2.2090909090909094 M 22.139999999999972 2.2090909090909094 L 18.139999999999972 2.2090909090909094 M 18.139999999999972 2.2090909090909094 M 16.139999999999972 2.2090909090909094 L 12.139999999999972 2.2090909090909094 M 12.139999999999972 2.2090909090909094 M 10.139999999999972 2.2090909090909094 L 6.139999999999972 2.2090909090909094 M 6.139999999999972 2.2090909090909094 M 4.139999999999972 2.2090909090909094 L 1.546363636363636 2.2090909090909094 Z" stroke-miterlimit="10" stroke-width="2" opacity="0"></path></g></g></g></g></g><g transform="translate(0,0) matrix(1,0,0,1,91.40909090909092,134.36363636363637)"><g><g transform="translate(0,0) scale(0.5154545454545453,0.7363636363636364)"><g><path fill="#FFFFFF" stroke="none" d="M 0 0 L 100 0 Q 100 0 100 0 L 100 100 Q 100 100 100 100 L 0 100 Q 0 100 0 100 L 0 0 Q 0 0 0 0 Z"></path><g transform="scale(1.9400352733686075,1.3580246913580245)"><path fill="none" stroke="#333333" d="M 0 0 L 51.545454545454525 0 Q 51.545454545454525 0 51.545454545454525 0 L 51.545454545454525 73.63636363636364 Q 51.545454545454525 73.63636363636364 51.545454545454525 73.63636363636364 L 0 73.63636363636364 Q 0 73.63636363636364 0 73.63636363636364 L 0 0 Q 0 0 0 0 Z" stroke-miterlimit="10" stroke-width="2"></path></g></g><g><g transform="scale(1.9400352733686075,1.3580246913580245)"><path fill="rgb(0,0,0)" stroke="none" d="M 1.0309090909090906 1.4727272727272729 L 1.0309090909090906 71.42727272727274 L 49.99909090909089 71.42727272727274 L 49.99909090909089 2.2090909090909094 L 1.546363636363636 2.2090909090909094 Z" fill-opacity="0" opacity="0"></path><path fill="none" stroke="#3C7626" d="M 1.0309090909090906 1.4727272727272729 M 1.0309090909090906 1.4727272727272729 L 1.0309090909090906 5.472727272727273 M 1.0309090909090906 5.472727272727273 M 1.0309090909090906 7.472727272727273 L 1.0309090909090906 11.472727272727273 M 1.0309090909090906 11.472727272727273 M 1.0309090909090906 13.472727272727273 L 1.0309090909090906 17.472727272727273 M 1.0309090909090906 17.472727272727273 M 1.0309090909090906 19.472727272727273 L 1.0309090909090906 23.472727272727273 M 1.0309090909090906 23.472727272727273 M 1.0309090909090906 25.472727272727273 L 1.0309090909090906 29.472727272727273 M 1.0309090909090906 29.472727272727273 M 1.0309090909090906 31.472727272727273 L 1.0309090909090906 35.47272727272727 M 1.0309090909090906 35.47272727272727 M 1.0309090909090906 37.47272727272727 L 1.0309090909090906 41.47272727272727 M 1.0309090909090906 41.47272727272727 M 1.0309090909090906 43.47272727272727 L 1.0309090909090906 47.47272727272727 M 1.0309090909090906 47.47272727272727 M 1.0309090909090906 49.47272727272727 L 1.0309090909090906 53.47272727272727 M 1.0309090909090906 53.47272727272727 M 1.0309090909090906 55.47272727272727 L 1.0309090909090906 59.47272727272727 M 1.0309090909090906 59.47272727272727 M 1.0309090909090906 61.47272727272727 L 1.0309090909090906 65.47272727272727 M 1.0309090909090906 65.47272727272727 M 1.0309090909090906 67.47272727272727 L 1.0309090909090906 71.42727272727274 L 1.076363636363623 71.42727272727274 M 1.076363636363623 71.42727272727274 M 3.076363636363623 71.42727272727274 L 7.076363636363623 71.42727272727274 M 7.076363636363623 71.42727272727274 M 9.076363636363624 71.42727272727274 L 13.076363636363624 71.42727272727274 M 13.076363636363624 71.42727272727274 M 15.076363636363624 71.42727272727274 L 19.076363636363624 71.42727272727274 M 19.076363636363624 71.42727272727274 M 21.076363636363624 71.42727272727274 L 25.076363636363624 71.42727272727274 M 25.076363636363624 71.42727272727274 M 27.076363636363624 71.42727272727274 L 31.076363636363624 71.42727272727274 M 31.076363636363624 71.42727272727274 M 33.076363636363624 71.42727272727274 L 37.076363636363624 71.42727272727274 M 37.076363636363624 71.42727272727274 M 39.076363636363624 71.42727272727274 L 43.076363636363624 71.42727272727274 M 43.076363636363624 71.42727272727274 M 45.076363636363624 71.42727272727274 L 49.076363636363624 71.42727272727274 M 49.076363636363624 71.42727272727274 M 49.99909090909089 70.35 L 49.99909090909089 66.35 M 49.99909090909089 66.35 M 49.99909090909089 64.35 L 49.99909090909089 60.349999999999994 M 49.99909090909089 60.349999999999994 M 49.99909090909089 58.349999999999994 L 49.99909090909089 54.349999999999994 M 49.99909090909089 54.349999999999994 M 49.99909090909089 52.349999999999994 L 49.99909090909089 48.349999999999994 M 49.99909090909089 48.349999999999994 M 49.99909090909089 46.349999999999994 L 49.99909090909089 42.349999999999994 M 49.99909090909089 42.349999999999994 M 49.99909090909089 40.349999999999994 L 49.99909090909089 36.349999999999994 M 49.99909090909089 36.349999999999994 M 49.99909090909089 34.349999999999994 L 49.99909090909089 30.349999999999994 M 49.99909090909089 30.349999999999994 M 49.99909090909089 28.349999999999994 L 49.99909090909089 24.349999999999994 M 49.99909090909089 24.349999999999994 M 49.99909090909089 22.349999999999994 L 49.99909090909089 18.349999999999994 M 49.99909090909089 18.349999999999994 M 49.99909090909089 16.349999999999994 L 49.99909090909089 12.349999999999994 M 49.99909090909089 12.349999999999994 M 49.99909090909089 10.349999999999994 L 49.99909090909089 6.349999999999994 M 49.99909090909089 6.349999999999994 M 49.99909090909089 4.349999999999994 L 49.99909090909089 2.2090909090909094 L 48.13999999999997 2.2090909090909094 M 48.13999999999997 2.2090909090909094 M 46.13999999999997 2.2090909090909094 L 42.13999999999997 2.2090909090909094 M 42.13999999999997 2.2090909090909094 M 40.13999999999997 2.2090909090909094 L 36.13999999999997 2.2090909090909094 M 36.13999999999997 2.2090909090909094 M 34.13999999999997 2.2090909090909094 L 30.139999999999972 2.2090909090909094 M 30.139999999999972 2.2090909090909094 M 28.139999999999972 2.2090909090909094 L 24.139999999999972 2.2090909090909094 M 24.139999999999972 2.2090909090909094 M 22.139999999999972 2.2090909090909094 L 18.139999999999972 2.2090909090909094 M 18.139999999999972 2.2090909090909094 M 16.139999999999972 2.2090909090909094 L 12.139999999999972 2.2090909090909094 M 12.139999999999972 2.2090909090909094 M 10.139999999999972 2.2090909090909094 L 6.139999999999972 2.2090909090909094 M 6.139999999999972 2.2090909090909094 M 4.139999999999972 2.2090909090909094 L 1.546363636363636 2.2090909090909094 Z" stroke-miterlimit="10" stroke-width="2" opacity="0"></path></g></g></g></g></g><g transform="translate(0,0) matrix(1,0,0,1,620,118)"><g><g transform="translate(0,0) scale(1,0.75)"><g><g transform="scale(1,1.3333333333333333)"><path fill="#FFFFFF" stroke="#333333" d="M 100 0 L 100 65.625 Q 100 75 50 75 Q 0 75 0 65.625 L 0 0 Q 0 -9.375 50 -9.375 Q 100 -9.375 100 0" stroke-miterlimit="10" stroke-width="2"></path></g></g><g><g transform="scale(1,1.3333333333333333)"><path fill="rgb(0,0,0)" stroke="#333333" d="M 0 0 Q 0 9.375 50 9.375 Q 100 9.375 100 0 M 0 4.6875 Q 0 14.0625 50 14.0625 Q 100 14.0625 100 4.6875 M 0 9.375 Q 0 18.75 50 18.75 Q 100 18.75 100 9.375" fill-opacity="0" stroke-miterlimit="10"></path></g></g></g></g></g><g transform="scale(1,1) matrix(1,0,0,1,622,118) translate(2,23.5)"><text fill="#000000" stroke="none" font-family="Arial" font-size="12px" font-style="normal" font-weight="normal" text-decoration="none" x="5.5" y="11">IEPY database</text><text fill="#000000" stroke="none" font-family="Arial" font-size="12px" font-style="normal" font-weight="normal" text-decoration="none" x="4.5" y="25">(preprocessed)</text></g><g transform="translate(0,0) matrix(1,0,0,1,340,265)"><g><g transform="translate(0,0) scale(1.2,0.75)"><g><g transform="scale(0.8333333333333334,1.3333333333333333)"><path fill="#FFFFFF" stroke="#333333" d="M 0 0 L 120 0 L 120 75 Q 90 56.25 60 75 Q 30 93.75 0 75 Z" stroke-miterlimit="10" stroke-width="2"></path></g></g></g></g></g><g transform="scale(1,1) matrix(1,0,0,1,342.4,265) translate(2,16.5)"><text fill="#000000" stroke="none" font-family="Arial" font-size="12px" font-style="normal" font-weight="normal" text-decoration="none" x="25.1" y="11">Seed Facts</text><text fill="#000000" stroke="none" font-family="Arial" font-size="12px" font-style="normal" font-weight="normal" text-decoration="none" x="10.600000000000001" y="25">(CSV formatted) </text><text fill="#000000" stroke="none" font-family="Arial" font-size="12px" font-style="normal" font-weight="normal" text-decoration="none" x="2.1000000000000014" y="39">entity-relation-entity</text></g><g transform="translate(0.5,0.5) matrix(1,0,0,1,380,118)"><g><g transform="translate(0,0) translate(0,0) scale(1.2600000000000002,1.2)"><g><path fill="#FFFFFF" stroke="none" d="M 20 5 A 5 5 0 1 0 19.999997500000205 5.004999999166668 Z"></path><g transform="scale(0.7936507936507935,0.8333333333333334)"><path fill="none" stroke="#000000" d="M 18.900000000000002 0 C 22.37939361 0 25.200000000000003 2.6862918000000002 25.200000000000003 6 C 25.200000000000003 9.3137082 22.37939361 12 18.900000000000002 12 C 15.420606390000001 12 12.600000000000001 9.3137082 12.600000000000001 6 C 12.600000000000001 2.6862918000000002 15.420606390000001 0 18.900000000000002 0 Z" stroke-miterlimit="10"></path></g></g><g><g transform="scale(0.7936507936507935,0.8333333333333334)"><path fill="none" stroke="#000000" d="M 18.900000000000002 12 L 18.900000000000002 36" stroke-miterlimit="10"></path></g></g><g><g transform="scale(0.7936507936507935,0.8333333333333334)"><path fill="none" stroke="#000000" d="M 18.900000000000002 36 L 12.600000000000001 60" stroke-miterlimit="10"></path></g></g><g><g transform="scale(0.7936507936507935,0.8333333333333334)"><path fill="none" stroke="#000000" d="M 18.900000000000002 36 L 25.200000000000003 60" stroke-miterlimit="10"></path></g></g><g><g transform="scale(0.7936507936507935,0.8333333333333334)"><path fill="none" stroke="#000000" d="M 18.900000000000002 36 L 25.200000000000003 60" stroke-miterlimit="10"></path></g></g><g><g transform="scale(0.7936507936507935,0.8333333333333334)"><path fill="none" stroke="#000000" d="M 0 18 L 37.800000000000004 18" stroke-miterlimit="10"></path></g></g></g></g></g><g transform="scale(1,1) matrix(1,0,0,1,382,118) translate(-18.599999999999998,62)"><text fill="#000000" stroke="none" font-family="Arial" font-size="12px" font-style="normal" font-weight="normal" text-decoration="none" x="0" y="11">Fact checker</text></g><g transform="translate(0,0) matrix(0,1,-1,0,425,195)"><g><g transform="translate(0,0) scale(0.7,0.5)"><g><g transform="scale(1.4285714285714286,2)"><path fill="#FFFFFF" stroke="#333333" d="M 0 15 L 44.99999999999999 15 L 44.99999999999999 0 L 70 25 L 44.99999999999999 50 L 44.99999999999999 35 L 0 35 L 0 15 L 0 15 Z" stroke-miterlimit="10" stroke-width="2"></path></g></g></g></g></g><g transform="translate(0,0) matrix(1,0,0,1,160,129.8181818181818)"><g><g transform="translate(0,0) scale(2.034,0.5)"><g><g transform="scale(0.4916420845624386,2)"><path fill="#FFFFFF" stroke="#333333" d="M 0 15 L 178.39999999999998 15 L 178.39999999999998 0 L 203.39999999999998 25 L 178.39999999999998 50 L 178.39999999999998 35 L 0 35 L 0 15 L 0 15 Z" stroke-miterlimit="10" stroke-width="2"></path></g></g></g></g></g><g transform="scale(1,1) matrix(1,0,0,1,162,129.8181818181818) translate(2,18)"><text fill="#000000" stroke="none" font-family="Arial" font-size="12px" font-style="normal" font-weight="normal" text-decoration="none" x="19.19999999999999" y="11">Manual document inspection</text></g><g transform="translate(0,0) matrix(1,0,0,1,425,129.8181818181818)"><g><g transform="translate(0,0) scale(1.8,0.5)"><g><g transform="scale(0.5555555555555556,2)"><path fill="#FFFFFF" stroke="#333333" d="M 0 25 L 25 0 L 25 15 L 155 15 L 155 0 L 180 25 L 155 50 L 155 35 L 25 35 L 25 50 L 0 25 L 0 25 Z" stroke-miterlimit="10" stroke-width="2"></path></g></g></g></g></g><g transform="scale(1,1) matrix(1,0,0,1,427,129.8181818181818) translate(2,18)"><text fill="#000000" stroke="none" font-family="Arial" font-size="12px" font-style="normal" font-weight="normal" text-decoration="none" x="29.5" y="11">IEPY seed generator</text></g><g transform="scale(1,1) matrix(1,0,0,1,75.04545454545453,57.5) translate(2,0)"><text fill="#000000" stroke="none" font-family="Arial" font-size="14px" font-style="normal" font-weight="normal" text-decoration="none" x="0" y="14">7.a) Generate seed facts manually looking </text><text fill="#000000" stroke="none" font-family="Arial" font-size="14px" font-style="normal" font-weight="normal" text-decoration="none" x="0" y="30">for examples in the source documents</text></g><g transform="scale(1,1) matrix(1,0,0,1,431.6454545454545,57.5) translate(2,0)"><text fill="#000000" stroke="none" font-family="Arial" font-size="14px" font-style="normal" font-weight="normal" text-decoration="none" x="0" y="14">7.b) Generate seed facts manually verifying </text><text fill="#000000" stroke="none" font-family="Arial" font-size="14px" font-style="normal" font-weight="normal" text-decoration="none" x="0" y="30">suggestions made by the iepy seed </text><text fill="#000000" stroke="none" font-family="Arial" font-size="14px" font-style="normal" font-weight="normal" text-decoration="none" x="0" y="46">generator</text></g><g transform="scale(1,1) matrix(1,0,0,1,363.4,73.5) translate(2,0)"><text fill="#000000" stroke="none" font-family="Arial" font-size="14px" font-style="normal" font-weight="normal" text-decoration="none" x="1.0000000000000036" y="14">and/or</text></g></g></svg>